<mxfile host="app.diagrams.net" modified="2023-05-04T04:15:27.211Z" agent="Mozilla/5.0 (Macintosh; Intel Mac OS X 10_15_7) AppleWebKit/537.36 (KHTML, like Gecko) Chrome/112.0.0.0 Safari/537.36 Edg/112.0.1722.68" version="21.2.7" etag="o5-O-rg3R_jYH1SKXW5X" type="github">
  <diagram name="第 1 页" id="iKk2psKwiYw-uZU4sWZw">
    <mxGraphModel>
      <root>
        <mxCell id="0" />
        <mxCell id="1" parent="0" />
      </root>
    </mxGraphModel>
  </diagram>
</mxfile>
